<?xml version="1.0" standalone="no"?><svg xmlns="http://www.w3.org/2000/svg" viewBox="0 0 1440 320"><path fill="#5D3CC8" fill-opacity="1" d="M0,96L34.3,128C68.6,160,137,224,206,250.7C274.3,277,343,267,411,240C480,213,549,171,617,144C685.7,117,754,107,823,122.7C891.4,139,960,181,1029,176C1097.1,171,1166,117,1234,117.3C1302.9,117,1371,171,1406,197.3L1440,224L1440,0L1405.7,0C1371.4,0,1303,0,1234,0C1165.7,0,1097,0,1029,0C960,0,891,0,823,0C754.3,0,686,0,617,0C548.6,0,480,0,411,0C342.9,0,274,0,206,0C137.1,0,69,0,34,0L0,0Z"></path></svg>